<mxfile host="app.diagrams.net" modified="2024-07-02T13:54:28.217Z" agent="Mozilla/5.0 (Windows NT 10.0; Win64; x64) AppleWebKit/537.36 (KHTML, like Gecko) Chrome/126.0.0.0 Safari/537.36" etag="eIM9B8gcefYTjq9a7E8G" version="24.6.4" type="device">
  <diagram name="Page-1" id="74e2e168-ea6b-b213-b513-2b3c1d86103e">
    <mxGraphModel dx="1332" dy="433" grid="1" gridSize="10" guides="1" tooltips="1" connect="1" arrows="1" fold="1" page="1" pageScale="1" pageWidth="1100" pageHeight="850" background="none" math="0" shadow="0">
      <root>
        <mxCell id="0" />
        <mxCell id="1" parent="0" />
        <mxCell id="77e6c97f196da883-1" value="&lt;font style=&quot;font-size: 12px;&quot;&gt;Merchant Onboarding&lt;/font&gt;" style="swimlane;html=1;childLayout=stackLayout;startSize=20;rounded=0;shadow=0;labelBackgroundColor=none;strokeWidth=1;fontFamily=Verdana;fontSize=8;align=center;" parent="1" vertex="1">
          <mxGeometry x="80" y="40" width="940" height="500" as="geometry">
            <mxRectangle x="70" y="40" width="60" height="20" as="alternateBounds" />
          </mxGeometry>
        </mxCell>
        <mxCell id="77e6c97f196da883-2" value="Merchant Screening/&lt;div&gt;Pre-boarding&lt;/div&gt;" style="swimlane;html=1;startSize=30;" parent="77e6c97f196da883-1" vertex="1">
          <mxGeometry y="20" width="160" height="480" as="geometry">
            <mxRectangle y="20" width="50" height="730" as="alternateBounds" />
          </mxGeometry>
        </mxCell>
        <mxCell id="77e6c97f196da883-8" value="&lt;div&gt;&lt;span style=&quot;background-color: initial;&quot;&gt;Merchant provides Business information&lt;/span&gt;&lt;/div&gt;&lt;div&gt;&lt;span style=&quot;background-color: initial;&quot;&gt;to Sales&lt;/span&gt;&lt;/div&gt;" style="rounded=1;whiteSpace=wrap;html=1;shadow=0;labelBackgroundColor=none;strokeWidth=1;fontFamily=Verdana;fontSize=8;align=center;" parent="77e6c97f196da883-2" vertex="1">
          <mxGeometry x="20" y="160" width="100" height="60" as="geometry" />
        </mxCell>
        <mxCell id="77e6c97f196da883-9" value="Share Business Information to Verification team" style="rounded=1;whiteSpace=wrap;html=1;shadow=0;labelBackgroundColor=none;strokeWidth=1;fontFamily=Verdana;fontSize=8;align=center;" parent="77e6c97f196da883-2" vertex="1">
          <mxGeometry x="20" y="256" width="100" height="60" as="geometry" />
        </mxCell>
        <mxCell id="WSMtzNSsom89c6V6oeBX-3" value="Request for Business Information&lt;div&gt;&lt;/div&gt;" style="rounded=1;whiteSpace=wrap;html=1;shadow=0;labelBackgroundColor=none;strokeWidth=1;fontFamily=Verdana;fontSize=8;align=center;" vertex="1" parent="77e6c97f196da883-2">
          <mxGeometry x="20" y="50" width="100" height="60" as="geometry" />
        </mxCell>
        <mxCell id="77e6c97f196da883-27" style="edgeStyle=orthogonalEdgeStyle;rounded=1;html=1;labelBackgroundColor=none;startArrow=none;startFill=0;startSize=5;endArrow=classicThin;endFill=1;endSize=5;jettySize=auto;orthogonalLoop=1;strokeWidth=1;fontFamily=Verdana;fontSize=8;exitX=0.5;exitY=1;exitDx=0;exitDy=0;" parent="77e6c97f196da883-2" source="WSMtzNSsom89c6V6oeBX-3" edge="1">
          <mxGeometry relative="1" as="geometry">
            <Array as="points">
              <mxPoint x="70" y="130" />
              <mxPoint x="70" y="130" />
            </Array>
            <mxPoint x="70" y="160" as="targetPoint" />
          </mxGeometry>
        </mxCell>
        <mxCell id="77e6c97f196da883-3" value="Merchant Verification" style="swimlane;html=1;startSize=30;" parent="77e6c97f196da883-1" vertex="1">
          <mxGeometry x="160" y="20" width="260" height="480" as="geometry" />
        </mxCell>
        <mxCell id="77e6c97f196da883-12" value="Merchant Check" style="rounded=1;whiteSpace=wrap;html=1;shadow=0;labelBackgroundColor=none;strokeWidth=1;fontFamily=Verdana;fontSize=8;align=center;" parent="77e6c97f196da883-3" vertex="1">
          <mxGeometry x="9" y="178" width="71" height="60" as="geometry" />
        </mxCell>
        <mxCell id="WSMtzNSsom89c6V6oeBX-4" value="&amp;gt; Legal Entity Verification&amp;nbsp;&lt;div&gt;&amp;gt; Ownership Verification&lt;/div&gt;" style="rounded=1;whiteSpace=wrap;html=1;shadow=0;labelBackgroundColor=none;strokeWidth=1;fontFamily=Verdana;fontSize=8;align=left;" vertex="1" parent="77e6c97f196da883-3">
          <mxGeometry x="120" y="50" width="119" height="50" as="geometry" />
        </mxCell>
        <mxCell id="WSMtzNSsom89c6V6oeBX-5" value="&amp;gt; Financial Statements&lt;div&gt;&amp;gt; Bank Account Verification&lt;/div&gt;" style="rounded=1;whiteSpace=wrap;html=1;shadow=0;labelBackgroundColor=none;strokeWidth=1;fontFamily=Verdana;fontSize=8;align=left;" vertex="1" parent="77e6c97f196da883-3">
          <mxGeometry x="120" y="230" width="119" height="50" as="geometry" />
        </mxCell>
        <mxCell id="WSMtzNSsom89c6V6oeBX-12" value="&amp;gt; Business Information Verification&lt;div&gt;&amp;gt; Business Operations Verification&lt;/div&gt;&lt;div&gt;&amp;gt; Review the Business Documents&lt;/div&gt;" style="rounded=1;whiteSpace=wrap;html=1;shadow=0;labelBackgroundColor=none;strokeWidth=1;fontFamily=Verdana;fontSize=8;align=left;" vertex="1" parent="77e6c97f196da883-3">
          <mxGeometry x="120" y="135" width="118" height="61" as="geometry" />
        </mxCell>
        <mxCell id="WSMtzNSsom89c6V6oeBX-15" value="&lt;div&gt;Regulatory Compliance&lt;/div&gt;&amp;gt; AML&lt;div&gt;&amp;gt; KYC&lt;/div&gt;&lt;div&gt;&amp;gt; Global&amp;nbsp; Sections List&lt;/div&gt;&lt;div&gt;&amp;gt; PCI Compliance (if applicable)&lt;/div&gt;" style="rounded=1;whiteSpace=wrap;html=1;shadow=0;labelBackgroundColor=none;strokeWidth=1;fontFamily=Verdana;fontSize=8;align=left;" vertex="1" parent="77e6c97f196da883-3">
          <mxGeometry x="120" y="310" width="119" height="70" as="geometry" />
        </mxCell>
        <mxCell id="WSMtzNSsom89c6V6oeBX-19" style="edgeStyle=orthogonalEdgeStyle;rounded=1;html=1;labelBackgroundColor=none;startArrow=none;startFill=0;startSize=5;endArrow=classicThin;endFill=1;endSize=5;jettySize=auto;orthogonalLoop=1;strokeWidth=1;fontFamily=Verdana;fontSize=8;exitX=1;exitY=0.5;exitDx=0;exitDy=0;entryX=0;entryY=0.5;entryDx=0;entryDy=0;" edge="1" parent="77e6c97f196da883-3" source="77e6c97f196da883-12" target="WSMtzNSsom89c6V6oeBX-12">
          <mxGeometry relative="1" as="geometry">
            <Array as="points">
              <mxPoint x="90" y="208" />
              <mxPoint x="90" y="166" />
            </Array>
            <mxPoint x="90" y="110" as="sourcePoint" />
            <mxPoint x="90" y="160" as="targetPoint" />
          </mxGeometry>
        </mxCell>
        <mxCell id="WSMtzNSsom89c6V6oeBX-20" style="edgeStyle=orthogonalEdgeStyle;rounded=1;html=1;labelBackgroundColor=none;startArrow=none;startFill=0;startSize=5;endArrow=classicThin;endFill=1;endSize=5;jettySize=auto;orthogonalLoop=1;strokeWidth=1;fontFamily=Verdana;fontSize=8;exitX=1;exitY=0.5;exitDx=0;exitDy=0;entryX=0;entryY=0.5;entryDx=0;entryDy=0;" edge="1" parent="77e6c97f196da883-3" source="77e6c97f196da883-12" target="WSMtzNSsom89c6V6oeBX-4">
          <mxGeometry relative="1" as="geometry">
            <Array as="points">
              <mxPoint x="90" y="208" />
              <mxPoint x="90" y="75" />
            </Array>
            <mxPoint x="90" y="218" as="sourcePoint" />
            <mxPoint x="130" y="176" as="targetPoint" />
          </mxGeometry>
        </mxCell>
        <mxCell id="WSMtzNSsom89c6V6oeBX-22" style="edgeStyle=orthogonalEdgeStyle;rounded=1;html=1;labelBackgroundColor=none;startArrow=none;startFill=0;startSize=5;endArrow=classicThin;endFill=1;endSize=5;jettySize=auto;orthogonalLoop=1;strokeWidth=1;fontFamily=Verdana;fontSize=8;exitX=1;exitY=0.5;exitDx=0;exitDy=0;entryX=0;entryY=0.5;entryDx=0;entryDy=0;" edge="1" parent="77e6c97f196da883-3" source="77e6c97f196da883-12" target="WSMtzNSsom89c6V6oeBX-15">
          <mxGeometry relative="1" as="geometry">
            <Array as="points">
              <mxPoint x="90" y="208" />
              <mxPoint x="90" y="345" />
            </Array>
            <mxPoint x="60" y="290" as="sourcePoint" />
            <mxPoint x="100" y="337" as="targetPoint" />
          </mxGeometry>
        </mxCell>
        <mxCell id="WSMtzNSsom89c6V6oeBX-23" style="edgeStyle=orthogonalEdgeStyle;rounded=1;html=1;labelBackgroundColor=none;startArrow=none;startFill=0;startSize=5;endArrow=classicThin;endFill=1;endSize=5;jettySize=auto;orthogonalLoop=1;strokeWidth=1;fontFamily=Verdana;fontSize=8;exitX=1;exitY=0.5;exitDx=0;exitDy=0;" edge="1" parent="77e6c97f196da883-3" source="77e6c97f196da883-12">
          <mxGeometry relative="1" as="geometry">
            <Array as="points">
              <mxPoint x="80" y="210" />
              <mxPoint x="90" y="210" />
              <mxPoint x="90" y="257" />
            </Array>
            <mxPoint x="100" y="210" as="sourcePoint" />
            <mxPoint x="120" y="257" as="targetPoint" />
          </mxGeometry>
        </mxCell>
        <mxCell id="77e6c97f196da883-4" value="Risk Assessment &amp;amp;&amp;nbsp;&lt;div&gt;Security Checks&lt;/div&gt;" style="swimlane;html=1;startSize=30;" parent="77e6c97f196da883-1" vertex="1">
          <mxGeometry x="420" y="20" width="190" height="480" as="geometry" />
        </mxCell>
        <mxCell id="WSMtzNSsom89c6V6oeBX-16" value="&lt;div&gt;&lt;b&gt;&lt;u&gt;Risk Profiling&lt;/u&gt;&lt;/b&gt;&lt;/div&gt;&amp;gt; Business Type&lt;div&gt;&lt;span style=&quot;background-color: initial;&quot;&gt;&amp;gt; Transaction Volume&lt;/span&gt;&lt;br&gt;&lt;/div&gt;&lt;div&gt;&amp;gt; Geographical Location&lt;/div&gt;" style="rounded=1;whiteSpace=wrap;html=1;shadow=0;labelBackgroundColor=none;strokeWidth=1;fontFamily=Verdana;fontSize=8;align=left;" vertex="1" parent="77e6c97f196da883-4">
          <mxGeometry x="20" y="120" width="120" height="50" as="geometry" />
        </mxCell>
        <mxCell id="WSMtzNSsom89c6V6oeBX-25" value="&lt;div&gt;&lt;b&gt;&lt;u&gt;Security Measures&lt;/u&gt;&lt;/b&gt;&lt;/div&gt;&amp;gt; Against Fraud&lt;div&gt;&lt;span style=&quot;background-color: initial;&quot;&gt;&amp;gt; Against Data breaches&lt;/span&gt;&lt;br&gt;&lt;/div&gt;&lt;div&gt;&lt;br&gt;&lt;/div&gt;" style="rounded=1;whiteSpace=wrap;html=1;shadow=0;labelBackgroundColor=none;strokeWidth=1;fontFamily=Verdana;fontSize=8;align=left;" vertex="1" parent="77e6c97f196da883-4">
          <mxGeometry x="20" y="240" width="120" height="50" as="geometry" />
        </mxCell>
        <mxCell id="77e6c97f196da883-5" value="Approval" style="swimlane;html=1;startSize=30;" parent="77e6c97f196da883-1" vertex="1">
          <mxGeometry x="610" y="20" width="160" height="480" as="geometry" />
        </mxCell>
        <mxCell id="77e6c97f196da883-15" value="Decline &amp;amp;&amp;nbsp;&lt;div&gt;Close&lt;/div&gt;" style="rounded=1;whiteSpace=wrap;html=1;shadow=0;labelBackgroundColor=none;strokeWidth=1;fontFamily=Verdana;fontSize=8;align=center;" parent="77e6c97f196da883-5" vertex="1">
          <mxGeometry x="19" y="240" width="100" height="60" as="geometry" />
        </mxCell>
        <mxCell id="77e6c97f196da883-16" value="&lt;b&gt;Approve?&lt;/b&gt;" style="rhombus;whiteSpace=wrap;html=1;rounded=0;shadow=0;labelBackgroundColor=none;strokeWidth=1;fontFamily=Verdana;fontSize=8;align=center;" parent="77e6c97f196da883-5" vertex="1">
          <mxGeometry x="29" y="120" width="80" height="60" as="geometry" />
        </mxCell>
        <mxCell id="77e6c97f196da883-34" style="edgeStyle=orthogonalEdgeStyle;rounded=1;html=1;labelBackgroundColor=none;startArrow=none;startFill=0;startSize=5;endArrow=classicThin;endFill=1;endSize=5;jettySize=auto;orthogonalLoop=1;strokeColor=#000000;strokeWidth=1;fontFamily=Verdana;fontSize=8;fontColor=#000000;exitX=0.5;exitY=1;exitDx=0;exitDy=0;entryX=0.5;entryY=0;entryDx=0;entryDy=0;" parent="77e6c97f196da883-5" source="77e6c97f196da883-16" target="77e6c97f196da883-15" edge="1">
          <mxGeometry relative="1" as="geometry">
            <mxPoint x="19" y="200" as="targetPoint" />
          </mxGeometry>
        </mxCell>
        <mxCell id="WSMtzNSsom89c6V6oeBX-26" value="Rejected" style="edgeLabel;html=1;align=center;verticalAlign=middle;resizable=0;points=[];" vertex="1" connectable="0" parent="77e6c97f196da883-34">
          <mxGeometry x="0.3" relative="1" as="geometry">
            <mxPoint as="offset" />
          </mxGeometry>
        </mxCell>
        <mxCell id="77e6c97f196da883-35" style="edgeStyle=orthogonalEdgeStyle;rounded=1;html=1;labelBackgroundColor=none;startArrow=none;startFill=0;startSize=5;endArrow=classicThin;endFill=1;endSize=5;jettySize=auto;orthogonalLoop=1;strokeWidth=1;fontFamily=Verdana;fontSize=8;exitX=1;exitY=0.5;exitDx=0;exitDy=0;" parent="77e6c97f196da883-1" source="77e6c97f196da883-16" target="77e6c97f196da883-17" edge="1">
          <mxGeometry relative="1" as="geometry" />
        </mxCell>
        <mxCell id="WSMtzNSsom89c6V6oeBX-31" value="Approved" style="edgeLabel;html=1;align=center;verticalAlign=middle;resizable=0;points=[];" vertex="1" connectable="0" parent="77e6c97f196da883-35">
          <mxGeometry x="0.1667" y="-1" relative="1" as="geometry">
            <mxPoint as="offset" />
          </mxGeometry>
        </mxCell>
        <mxCell id="77e6c97f196da883-7" value="Setup &amp;amp; Integration" style="swimlane;html=1;startSize=30;" parent="77e6c97f196da883-1" vertex="1">
          <mxGeometry x="770" y="20" width="170" height="480" as="geometry">
            <mxRectangle x="640" y="20" width="40" height="730" as="alternateBounds" />
          </mxGeometry>
        </mxCell>
        <mxCell id="77e6c97f196da883-17" value="&lt;b&gt;Onboard&amp;nbsp;&lt;/b&gt;&lt;div&gt;&lt;b&gt;Merchant&lt;/b&gt;&lt;/div&gt;&lt;div&gt;&amp;gt; Account Setup&lt;/div&gt;&lt;div&gt;&amp;gt; Configuration&amp;nbsp;&lt;/div&gt;" style="rounded=1;whiteSpace=wrap;html=1;shadow=0;labelBackgroundColor=none;strokeWidth=1;fontFamily=Verdana;fontSize=8;align=center;fillColor=#29FF37;" parent="77e6c97f196da883-7" vertex="1">
          <mxGeometry x="42" y="120" width="100" height="60" as="geometry" />
        </mxCell>
        <mxCell id="WSMtzNSsom89c6V6oeBX-9" value="&amp;gt; Technical Integration&lt;div&gt;&amp;gt; API Documentation&lt;/div&gt;&lt;div&gt;&amp;gt; Training &amp;amp; Testing&lt;/div&gt;" style="rounded=1;whiteSpace=wrap;html=1;shadow=0;labelBackgroundColor=none;strokeWidth=1;fontFamily=Verdana;fontSize=8;align=left;" vertex="1" parent="77e6c97f196da883-7">
          <mxGeometry x="42" y="240" width="100" height="60" as="geometry" />
        </mxCell>
        <mxCell id="WSMtzNSsom89c6V6oeBX-34" style="edgeStyle=orthogonalEdgeStyle;rounded=1;html=1;labelBackgroundColor=none;startArrow=none;startFill=0;startSize=5;endArrow=classicThin;endFill=1;endSize=5;jettySize=auto;orthogonalLoop=1;strokeColor=#000000;strokeWidth=1;fontFamily=Verdana;fontSize=8;fontColor=#000000;exitX=0.5;exitY=1;exitDx=0;exitDy=0;entryX=0.5;entryY=0;entryDx=0;entryDy=0;" edge="1" parent="77e6c97f196da883-7" target="WSMtzNSsom89c6V6oeBX-9">
          <mxGeometry relative="1" as="geometry">
            <mxPoint x="91.5" y="180" as="sourcePoint" />
            <mxPoint x="92" y="230" as="targetPoint" />
          </mxGeometry>
        </mxCell>
      </root>
    </mxGraphModel>
  </diagram>
</mxfile>
